<svg width="400" height="400" viewBox="0 0 400 400" fill="none" xmlns="http://www.w3.org/2000/svg">
<path fill-rule="evenodd" clip-rule="evenodd" d="M373.736 344.838C373.736 351.223 368.847 356.397 362.816 356.397H38.2154C32.1855 356.397 27.2959 351.222 27.2959 344.838V343.567C27.2959 337.183 32.1855 332.009 38.2154 332.009H362.816C368.847 332.009 373.736 337.184 373.736 343.567V344.838Z" fill="#EAF9E7"/>
<path fill-rule="evenodd" clip-rule="evenodd" d="M358.342 365.416C358.342 371.8 353.453 376.975 347.422 376.975H50.8599C44.83 376.975 39.9395 371.8 39.9395 365.416V364.146C39.9395 357.763 44.83 352.587 50.8599 352.587H347.422C353.454 352.587 358.342 357.763 358.342 364.146V365.416Z" fill="#EAF9E7"/>
<path fill-rule="evenodd" clip-rule="evenodd" d="M321.421 391.585C321.421 396.232 317.862 400 313.472 400H125C120.612 400 117.051 396.232 117.051 391.585V390.661C117.051 386.013 120.611 382.247 125 382.247H313.472C317.862 382.247 321.421 386.013 321.421 390.661V391.585Z" fill="#EAF9E7"/>
<path fill-rule="evenodd" clip-rule="evenodd" d="M257.346 360.206C257.346 362.379 255.683 364.14 253.63 364.14H129.168C127.115 364.14 125.451 362.379 125.451 360.206V359.774C125.451 357.603 127.116 355.839 129.168 355.839H253.63C255.683 355.839 257.346 357.603 257.346 359.774V360.206Z" fill="#013237"/>
<path fill-rule="evenodd" clip-rule="evenodd" d="M312.462 353.382C312.462 355.199 311.071 356.672 309.354 356.672H278.826C277.11 356.672 275.717 355.2 275.717 353.382V353.02C275.717 351.205 277.109 349.731 278.826 349.731H309.354C311.071 349.731 312.462 351.205 312.462 353.02V353.382Z" fill="#013237"/>
<path fill-rule="evenodd" clip-rule="evenodd" d="M260.812 379.717C260.812 383.1 258.222 385.843 255.026 385.843H198.195C195.001 385.843 192.409 383.1 192.409 379.717V379.043C192.409 375.661 195.001 372.919 198.195 372.919H255.026C258.222 372.919 260.812 375.662 260.812 379.043V379.717Z" fill="#4CA771"/>
<path fill-rule="evenodd" clip-rule="evenodd" d="M118.456 360.206C118.456 362.379 116.793 364.14 114.739 364.14H78.2357C76.184 364.14 74.519 362.379 74.519 360.206V359.774C74.519 357.601 76.184 355.839 78.2357 355.839H114.739C116.793 355.839 118.456 357.601 118.456 359.774V360.206Z" fill="#013237"/>
<path fill-rule="evenodd" clip-rule="evenodd" d="M189.249 344.714C189.249 346.532 187.857 348.004 186.14 348.004H155.613C153.896 348.004 152.504 346.532 152.504 344.714V344.352C152.504 342.536 153.896 341.063 155.613 341.063H186.14C187.857 341.063 189.249 342.536 189.249 344.352V344.714Z" fill="#4CA771"/>
<path fill-rule="evenodd" clip-rule="evenodd" d="M264.04 344.714C264.04 346.532 262.648 348.004 260.932 348.004H197.538C195.821 348.004 194.43 346.532 194.43 344.714V344.352C194.43 342.536 195.821 341.063 197.538 341.063H260.932C262.648 341.063 264.04 342.536 264.04 344.352V344.714Z" fill="#4CA771"/>
<path fill-rule="evenodd" clip-rule="evenodd" d="M241.315 351.224C241.315 353.051 239.916 354.534 238.189 354.534C236.463 354.534 235.063 353.051 235.063 351.224C235.063 349.397 236.463 347.916 238.189 347.916C239.916 347.916 241.315 349.397 241.315 351.224Z" fill="#EAF9E7"/>
<path fill-rule="evenodd" clip-rule="evenodd" d="M112.388 368.089C112.388 369.916 110.989 371.399 109.263 371.399C107.536 371.399 106.137 369.916 106.137 368.089C106.137 366.262 107.536 364.781 109.263 364.781C110.989 364.782 112.388 366.263 112.388 368.089Z" fill="#EAF9E7"/>
<path fill-rule="evenodd" clip-rule="evenodd" d="M323.745 348.572C323.745 350.4 322.346 351.881 320.619 351.881C318.893 351.881 317.494 350.4 317.494 348.572C317.494 346.744 318.893 345.263 320.619 345.263C322.346 345.264 323.745 346.745 323.745 348.572Z" fill="#EAF9E7"/>
<path fill-rule="evenodd" clip-rule="evenodd" d="M153.04 352.926C153.04 354.754 151.641 356.235 149.914 356.235C148.188 356.235 146.789 354.754 146.789 352.926C146.789 351.098 148.188 349.618 149.914 349.618C151.641 349.618 153.04 351.098 153.04 352.926Z" fill="#EAF9E7"/>
<path fill-rule="evenodd" clip-rule="evenodd" d="M299.158 348.573C299.158 349.665 298.322 350.55 297.29 350.55C296.258 350.55 295.422 349.665 295.422 348.573C295.422 347.482 296.258 346.596 297.29 346.596C298.322 346.596 299.158 347.482 299.158 348.573Z" fill="#EAF9E7"/>
<path fill-rule="evenodd" clip-rule="evenodd" d="M106.137 345.158C106.137 346.25 105.301 347.135 104.268 347.135C103.237 347.135 102.4 346.25 102.4 345.158C102.4 344.066 103.237 343.181 104.268 343.181C105.301 343.181 106.137 344.066 106.137 345.158Z" fill="#EAF9E7"/>
<path fill-rule="evenodd" clip-rule="evenodd" d="M222.964 353.202C222.964 354.294 222.128 355.179 221.097 355.179C220.065 355.179 219.229 354.295 219.229 353.202C219.229 352.11 220.064 351.224 221.097 351.224C222.128 351.224 222.964 352.109 222.964 353.202Z" fill="#EAF9E7"/>
<path fill-rule="evenodd" clip-rule="evenodd" d="M199.22 340.518C199.22 341.61 198.384 342.494 197.352 342.494C196.32 342.494 195.484 341.61 195.484 340.518C195.484 339.425 196.32 338.54 197.352 338.54C198.384 338.541 199.22 339.425 199.22 340.518Z" fill="#EAF9E7"/>
<path fill-rule="evenodd" clip-rule="evenodd" d="M120.787 360.868C120.787 361.962 119.951 362.847 118.919 362.847C117.887 362.847 117.052 361.962 117.052 360.868C117.052 359.777 117.887 358.892 118.919 358.892C119.951 358.891 120.787 359.777 120.787 360.868Z" fill="#EAF9E7"/>
<path fill-rule="evenodd" clip-rule="evenodd" d="M329.52 342.496C329.52 343.589 328.683 344.474 327.652 344.474C326.62 344.474 325.784 343.589 325.784 342.496C325.784 341.404 326.62 340.519 327.652 340.519C328.683 340.518 329.52 341.404 329.52 342.496Z" fill="#EAF9E7"/>
<path fill-rule="evenodd" clip-rule="evenodd" d="M263.535 364.126C263.535 365.218 262.699 366.103 261.667 366.103C260.636 366.103 259.799 365.218 259.799 364.126C259.799 363.033 260.636 362.149 261.667 362.149C262.699 362.148 263.535 363.033 263.535 364.126Z" fill="#EAF9E7"/>
<path fill-rule="evenodd" clip-rule="evenodd" d="M231.604 360.87C231.604 361.591 231.052 362.174 230.371 362.174C229.689 362.174 229.137 361.591 229.137 360.87C229.137 360.148 229.689 359.563 230.371 359.563C231.052 359.563 231.604 360.148 231.604 360.87Z" fill="#EAF9E7"/>
<path fill-rule="evenodd" clip-rule="evenodd" d="M314.056 368.089C314.056 368.81 313.504 369.395 312.823 369.395C312.141 369.395 311.589 368.81 311.589 368.089C311.589 367.368 312.141 366.784 312.823 366.784C313.503 366.784 314.056 367.369 314.056 368.089Z" fill="#EAF9E7"/>
<path fill-rule="evenodd" clip-rule="evenodd" d="M169.519 344.202C169.519 344.923 168.968 345.508 168.286 345.508C167.605 345.508 167.053 344.923 167.053 344.202C167.053 343.481 167.604 342.897 168.286 342.897C168.968 342.898 169.519 343.481 169.519 344.202Z" fill="#EAF9E7"/>
<path fill-rule="evenodd" clip-rule="evenodd" d="M127.818 369.395C127.818 370.116 127.265 370.7 126.585 370.7C125.904 370.7 125.352 370.116 125.352 369.395C125.352 368.674 125.903 368.089 126.585 368.089C127.265 368.089 127.818 368.674 127.818 369.395Z" fill="#EAF9E7"/>
<path fill-rule="evenodd" clip-rule="evenodd" d="M115.221 340.518C115.221 341.24 114.67 341.823 113.989 341.823C113.308 341.823 112.756 341.24 112.756 340.518C112.756 339.797 113.308 339.213 113.989 339.213C114.669 339.213 115.221 339.798 115.221 340.518Z" fill="#EAF9E7"/>
<path fill-rule="evenodd" clip-rule="evenodd" d="M275.11 332.54C281.917 332.193 288.755 331.804 295.562 331.751V178.017H282.68V157.044H262.227V332.395H275.109V332.54H275.11Z" fill="#EAF9E7"/>
<path fill-rule="evenodd" clip-rule="evenodd" d="M332.05 306.76V230.693L319.349 226.231V332.395H329.772H332.05H348.325V306.76H332.05Z" fill="#EAF9E7"/>
<path fill-rule="evenodd" clip-rule="evenodd" d="M198.171 107.351H189.383V183.346H181.489V316.178H190.277V240.181H198.171V107.351Z" fill="#EAF9E7"/>
<path opacity="0.4" fill-rule="evenodd" clip-rule="evenodd" d="M251.472 147.522V59.9546L197.607 70.7268V189.834H193.597V332.395H197.607H218.78H229.041H251.472H257.025V147.522H251.472Z" fill="#4CA771"/>
<path fill-rule="evenodd" clip-rule="evenodd" d="M178.159 95.4102V89.04H134.84V95.4102H123.55V332.395H189.449V95.4102H178.159Z" fill="#97C58F"/>
<path d="M319.349 188.284H279.017V332.395H319.349V188.284Z" fill="#4CA771"/>
<path d="M206.872 75.144H204.397V269.807H206.872V75.144Z" fill="#013237"/>
<path d="M216.097 75.144H213.62V269.807H216.097V75.144Z" fill="#013237"/>
<path d="M225.323 75.144H222.845V269.807H225.323V75.144Z" fill="#013237"/>
<path d="M234.546 75.144H232.07V269.807H234.546V75.144Z" fill="#013237"/>
<path d="M243.771 75.144H241.295V269.807H243.771V75.144Z" fill="#013237"/>
<path d="M309.098 289.302H267.272V332.395H309.098V289.302Z" fill="#C0E6BA"/>
<path fill-rule="evenodd" clip-rule="evenodd" d="M231.953 332.395H178.458V178.557L231.953 193.519V332.395Z" fill="#013237"/>
<path d="M271.571 326.403V332.024H191.18V326.403H222.359H239.643H271.571Z" fill="#013237"/>
<path d="M271.571 299.917V326.403H239.643V296.415H222.359V326.403H191.18V299.917V294.932V287.051H271.571V294.932V299.917Z" fill="#4CA771"/>
<path d="M191.18 285.654V283.188H231.368H271.571V285.654V287.051H191.18V285.654Z" fill="#013237"/>
<path d="M271.571 269.979V283.188H231.368V241.955H271.571V242.147V257.804V269.979ZM260.436 271.443V252.439H243.889V271.443H260.436Z" fill="#013237"/>
<path d="M271.571 229.953V241.955H231.368V202.965H271.571V214.295V229.953ZM260.436 230.954V211.968H243.889V230.954H260.436Z" fill="#4CA771"/>
<path d="M191.18 242.147V241.955H231.368V283.188H191.18V269.979V257.805V242.147ZM219.858 271.443V252.439H203.31V271.443H219.858Z" fill="#4CA771"/>
<path d="M191.18 229.953V214.295V202.965H231.368V241.955H191.18V229.953ZM219.858 230.954V211.968H203.31V230.954H219.858Z" fill="#013237"/>
<path d="M87.3305 51.9742L86.4675 50.8082L144.12 3.00781L241.59 37.0327L241.152 38.4381L144.394 4.66278L87.3305 51.9742Z" fill="#4CA771"/>
<path d="M283.321 55.2055H89.1359C88.7358 55.2055 88.3799 54.9353 88.2518 54.5342C88.1246 54.1321 88.2536 53.6889 88.5724 53.4327L104.894 40.3099C105.056 40.179 105.254 40.1098 105.458 40.1098H124.655C124.827 40.1098 124.996 40.1603 125.142 40.2557L145.125 53.2317H159.832L179.972 40.2519C180.119 40.1584 180.286 40.1089 180.457 40.1089H261.675C261.837 40.1089 261.997 40.1538 262.138 40.2398L283.784 53.3617C284.15 53.5842 284.33 54.0396 284.222 54.4725C284.114 54.9063 283.744 55.2055 283.321 55.2055ZM163.421 53.2317H279.816L261.428 42.0836H180.719L163.421 53.2317ZM91.9067 53.2317H141.558L124.391 42.0836H105.771L91.9067 53.2317Z" fill="#4CA771"/>
<path d="M180.458 55.2056C180.301 55.2056 180.143 55.1645 180.001 55.0794C179.707 54.9055 179.525 54.5763 179.525 54.2182V41.0973C179.525 40.5522 179.943 40.1099 180.458 40.1099C180.973 40.1099 181.391 40.5522 181.391 41.0973V52.4604L200.276 40.2539C200.564 40.0688 200.924 40.0613 201.218 40.2361C201.513 40.411 201.695 40.7401 201.695 41.0973V54.2192C201.695 54.7643 201.277 55.2065 200.762 55.2065C200.247 55.2065 199.83 54.7652 199.83 54.2192V42.857L180.943 55.0616C180.794 55.1579 180.627 55.2056 180.458 55.2056Z" fill="#4CA771"/>
<path d="M221.067 55.2056C220.91 55.2056 220.753 55.1645 220.611 55.0794C220.317 54.9055 220.135 54.5763 220.135 54.2182V41.0973C220.135 40.5522 220.552 40.1099 221.067 40.1099C221.582 40.1099 222 40.5522 222 41.0973V52.4604L240.886 40.2539C241.174 40.0688 241.534 40.0613 241.828 40.2361C242.123 40.411 242.304 40.7401 242.304 41.0973V54.2192C242.304 54.7643 241.886 55.2065 241.372 55.2065C240.857 55.2065 240.44 54.7652 240.44 54.2192V42.857L221.553 55.0616C221.404 55.1579 221.235 55.2056 221.067 55.2056Z" fill="#4CA771"/>
<path d="M200.763 55.2056C200.607 55.2056 200.449 55.1645 200.306 55.0794C200.012 54.9055 199.83 54.5763 199.83 54.2182V41.0973C199.83 40.5522 200.247 40.1099 200.762 40.1099C201.277 40.1099 201.695 40.5522 201.695 41.0973V52.4604L220.58 40.2539C220.868 40.0688 221.229 40.0613 221.522 40.2361C221.817 40.411 221.999 40.7401 221.999 41.0973V54.2192C221.999 54.7643 221.582 55.2065 221.066 55.2065C220.55 55.2065 220.133 54.7652 220.133 54.2192V42.857L201.248 55.0616C201.1 55.1579 200.931 55.2056 200.763 55.2056Z" fill="#4CA771"/>
<path d="M241.371 55.2056C241.214 55.2056 241.056 55.1645 240.915 55.0794C240.621 54.9055 240.439 54.5763 240.439 54.2182V41.0973C240.439 40.5522 240.856 40.1099 241.371 40.1099C241.885 40.1099 242.303 40.5522 242.303 41.0973V52.4604L261.19 40.2539C261.478 40.0688 261.838 40.0613 262.132 40.2361C262.426 40.411 262.609 40.7401 262.609 41.0973V54.2192C262.609 54.7643 262.191 55.2065 261.675 55.2065C261.16 55.2065 260.743 54.7652 260.743 54.2192V42.857L241.857 55.0616C241.709 55.1579 241.54 55.2056 241.371 55.2056Z" fill="#4CA771"/>
<path d="M124.636 55.2053C124.46 55.2053 124.284 55.153 124.131 55.0482L106.274 42.9044V54.2189C106.274 54.764 105.856 55.2063 105.34 55.2063C104.826 55.2063 104.408 54.7649 104.408 54.2189V41.097C104.408 40.7351 104.594 40.4023 104.894 40.2302C105.192 40.0563 105.557 40.0704 105.845 40.2658L123.701 52.4106V41.097C123.701 40.5519 124.12 40.1096 124.635 40.1096C125.149 40.1096 125.567 40.5519 125.567 41.097V54.2189C125.567 54.5798 125.381 54.9127 125.082 55.0866C124.942 55.1651 124.789 55.2053 124.636 55.2053Z" fill="#4CA771"/>
<path d="M160.095 190.122H144.862C144.526 190.122 144.217 189.931 144.051 189.622C143.885 189.314 143.889 188.933 144.061 188.628L158.449 163.192H144.861C144.346 163.192 143.928 162.748 143.928 162.203C143.928 161.658 144.346 161.217 144.861 161.217H160.094C160.43 161.217 160.739 161.408 160.905 161.717C161.071 162.026 161.066 162.405 160.894 162.711L146.507 188.148H160.094C160.609 188.148 161.026 188.591 161.026 189.136C161.026 189.681 160.61 190.122 160.095 190.122Z" fill="#4CA771"/>
<path d="M160.095 136.259H144.862C144.526 136.259 144.217 136.067 144.051 135.759C143.885 135.449 143.889 135.068 144.061 134.764L158.449 109.326H144.861C144.346 109.326 143.928 108.885 143.928 108.339C143.928 107.793 144.346 107.352 144.861 107.352H160.094C160.43 107.352 160.739 107.544 160.905 107.853C161.071 108.162 161.066 108.541 160.894 108.847L146.507 134.284H160.094C160.609 134.284 161.026 134.726 161.026 135.271C161.027 135.816 160.61 136.259 160.095 136.259Z" fill="#4CA771"/>
<path d="M160.095 163.19H144.862C144.526 163.19 144.217 162.999 144.051 162.689C143.885 162.379 143.889 162 144.061 161.695L158.449 136.258H144.861C144.346 136.258 143.928 135.816 143.928 135.271C143.928 134.725 144.346 134.284 144.861 134.284H160.094C160.43 134.284 160.739 134.474 160.905 134.785C161.071 135.093 161.066 135.474 160.894 135.779L146.507 161.217H160.094C160.609 161.217 161.026 161.658 161.026 162.203C161.027 162.747 160.61 163.19 160.095 163.19Z" fill="#4CA771"/>
<path d="M160.095 109.326H144.862C144.526 109.326 144.217 109.134 144.051 108.825C143.885 108.516 143.889 108.136 144.061 107.831L158.449 82.3937H144.861C144.346 82.3937 143.928 81.9524 143.928 81.4063C143.928 80.8612 144.346 80.4189 144.861 80.4189H160.094C160.43 80.4189 160.739 80.6106 160.905 80.9192C161.071 81.2287 161.066 81.6092 160.894 81.9131L146.507 107.351H160.094C160.609 107.351 161.026 107.793 161.026 108.338C161.027 108.884 160.61 109.326 160.095 109.326Z" fill="#4CA771"/>
<path d="M160.095 297.85H144.862C144.526 297.85 144.217 297.659 144.051 297.35C143.885 297.039 143.889 296.66 144.061 296.355L158.449 270.917H144.861C144.346 270.917 143.928 270.476 143.928 269.931C143.928 269.386 144.346 268.942 144.861 268.942H160.094C160.43 268.942 160.739 269.133 160.905 269.444C161.071 269.752 161.066 270.132 160.894 270.438L146.507 295.876H160.094C160.609 295.876 161.026 296.318 161.026 296.864C161.026 297.409 160.61 297.85 160.095 297.85Z" fill="#4CA771"/>
<path d="M160.095 243.986H144.862C144.526 243.986 144.217 243.795 144.051 243.485C143.885 243.177 143.889 242.796 144.061 242.49L158.449 217.053H144.861C144.346 217.053 143.928 216.612 143.928 216.065C143.928 215.52 144.346 215.079 144.861 215.079H160.094C160.43 215.079 160.739 215.27 160.905 215.579C161.071 215.888 161.066 216.269 160.894 216.573L146.507 242.011H160.094C160.609 242.011 161.026 242.453 161.026 242.999C161.027 243.544 160.61 243.986 160.095 243.986Z" fill="#4CA771"/>
<path d="M160.095 270.918H144.862C144.526 270.918 144.217 270.726 144.051 270.418C143.885 270.107 143.889 269.729 144.061 269.423L158.449 243.986H144.861C144.346 243.986 143.928 243.543 143.928 242.999C143.928 242.453 144.346 242.011 144.861 242.011H160.094C160.43 242.011 160.739 242.203 160.905 242.511C161.071 242.821 161.066 243.201 160.894 243.505L146.507 268.942H160.094C160.609 268.942 161.026 269.385 161.026 269.931C161.026 270.476 160.61 270.918 160.095 270.918Z" fill="#4CA771"/>
<path d="M160.095 217.054H144.862C144.526 217.054 144.217 216.863 144.051 216.553C143.885 216.244 143.889 215.865 144.061 215.559L158.449 190.121H144.861C144.346 190.121 143.928 189.68 143.928 189.135C143.928 188.59 144.346 188.146 144.861 188.146H160.094C160.43 188.146 160.739 188.338 160.905 188.648C161.071 188.958 161.066 189.337 160.894 189.643L146.507 215.079H160.094C160.609 215.079 161.026 215.521 161.026 216.066C161.027 216.612 160.61 217.054 160.095 217.054Z" fill="#4CA771"/>
<path d="M160.095 324.782H144.862C144.526 324.782 144.217 324.591 144.051 324.281C143.885 323.972 143.889 323.592 144.061 323.287L158.449 297.85H144.861C144.346 297.85 143.928 297.408 143.928 296.863C143.928 296.318 144.346 295.875 144.861 295.875H160.094C160.43 295.875 160.739 296.066 160.905 296.377C161.071 296.685 161.066 297.065 160.894 297.369L146.507 322.806H160.094C160.609 322.806 161.026 323.249 161.026 323.794C161.027 324.34 160.61 324.782 160.095 324.782Z" fill="#4CA771"/>
<path d="M160.095 324.766H144.862C144.347 324.766 143.929 324.324 143.929 323.779V54.2188C143.929 53.6746 144.347 53.2314 144.862 53.2314H160.095C160.61 53.2314 161.027 53.6746 161.027 54.2188V323.779C161.027 324.324 160.61 324.766 160.095 324.766ZM145.794 322.791H159.163V55.2052H145.794V322.791Z" fill="#4CA771"/>
<path d="M160.095 55.2053H144.862C144.347 55.2053 143.929 54.764 143.929 54.2179V3.37222C143.929 2.88508 144.265 2.47087 144.721 2.39607C145.175 2.32314 145.614 2.60926 145.751 3.07489L160.985 53.9197C161.076 54.2198 161.023 54.548 160.849 54.8014C160.672 55.0557 160.393 55.2053 160.095 55.2053ZM145.794 53.2315H158.821L145.794 9.75178V53.2315Z" fill="#4CA771"/>
<path d="M160.095 55.2052C159.827 55.2052 159.559 55.0837 159.375 54.8462L144.141 35.2681C143.912 34.9726 143.864 34.5649 144.018 34.2181C144.172 33.873 144.501 33.6533 144.862 33.6533H154.23C154.745 33.6533 155.162 34.0956 155.162 34.6407C155.162 35.1858 154.745 35.6271 154.23 35.6271H146.839L160.815 53.5905C161.142 54.0112 161.084 54.634 160.687 54.9808C160.514 55.1323 160.304 55.2052 160.095 55.2052Z" fill="#4CA771"/>
<path d="M92.4009 53.4374C92.4009 55.7319 90.6432 57.5926 88.4758 57.5926C86.3074 57.5926 84.5515 55.7319 84.5515 53.4374C84.5515 51.142 86.3083 49.2822 88.4758 49.2822C90.6432 49.2822 92.4009 51.1429 92.4009 53.4374Z" fill="#013237"/>
<path d="M245.199 40.3568C245.199 42.6513 243.442 44.511 241.275 44.511C239.107 44.511 237.349 42.6513 237.349 40.3568C237.349 38.0613 239.107 36.2007 241.275 36.2007C243.442 36.1997 245.199 38.0613 245.199 40.3568Z" fill="#013237"/>
<path d="M148.164 4.15424C148.164 6.44968 146.408 8.30941 144.24 8.30941C142.073 8.30941 140.315 6.44968 140.315 4.15424C140.315 1.86067 142.073 0 144.24 0C146.408 0 148.164 1.86067 148.164 4.15424Z" fill="#013237"/>
<path d="M174.008 76.1396C174.008 77.5739 172.948 78.7352 171.641 78.7352C170.334 78.7352 169.275 77.5739 169.275 76.1396C169.275 74.7062 170.334 73.5459 171.641 73.5459C172.949 73.545 174.008 74.7062 174.008 76.1396Z" fill="#B7CAE5"/>
<path d="M134.194 79.2973L135.968 64.6747L137.194 49.9521C137.446 46.9264 139.725 44.645 142.496 44.645H162.558C164.605 44.645 166.461 46.0597 167.175 48.1644L170.608 58.3045C171.55 61.0862 172.028 63.9997 172.028 66.9674V78.7064C172.028 79.0299 171.791 79.2936 171.496 79.2992L134.739 79.9687C134.737 79.9687 134.734 79.9687 134.731 79.9687C134.577 79.9687 134.429 79.8967 134.327 79.7705C134.221 79.6424 134.172 79.4694 134.194 79.2973Z" fill="#013237"/>
<path d="M164.13 49.6114L167.99 61.7048C168.055 61.9067 168.027 62.1236 167.914 62.2985C167.802 62.4733 167.624 62.5724 167.429 62.5724H151.574V47.9751H162.029C162.973 47.9751 163.818 48.6333 164.13 49.6114Z" fill="#EAF9E7"/>
<mask id="mask0_15_85" style="mask-type:luminance" maskUnits="userSpaceOnUse" x="151" y="47" width="18" height="16">
<path d="M164.13 49.6114L167.99 61.7048C168.055 61.9067 168.027 62.1236 167.914 62.2985C167.802 62.4733 167.624 62.5724 167.429 62.5724H151.574V47.9751H162.029C162.973 47.9751 163.818 48.6333 164.13 49.6114Z" fill="white"/>
</mask>
<g mask="url(#mask0_15_85)">
<path d="M160.255 47.3804L168.23 60.6584L168.5 61.5083C168.759 62.319 168.21 63.1661 167.428 63.1661H163.33L154.531 47.3813L160.255 47.3804Z" fill="#EAF9E7"/>
<path d="M152.292 47.3804L160.443 63.1661H158.624L151.031 48.6024V47.3804H152.292Z" fill="#EAF9E7"/>
<path d="M160.255 47.3804L168.23 60.6584L168.5 61.5083C168.759 62.319 168.21 63.1661 167.428 63.1661H163.33L154.531 47.3813L160.255 47.3804Z" fill="#EAF9E7"/>
<path d="M152.292 47.3804L160.443 63.1661H158.624L151.031 48.6024V47.3804H152.292Z" fill="#EAF9E7"/>
</g>
<path d="M169.312 66.5742V74.5189C169.312 75.252 168.768 75.8485 168.1 75.8485H157.978L156.267 72.3002C155.402 70.5021 154.002 69.0351 152.325 68.1693L151.573 67.7803V65.4307L168.319 65.4811C168.866 65.483 169.312 65.973 169.312 66.5742Z" fill="#EAF9E7"/>
<mask id="mask1_15_85" style="mask-type:luminance" maskUnits="userSpaceOnUse" x="151" y="65" width="19" height="11">
<path d="M169.312 66.5742V74.5189C169.312 75.252 168.768 75.8485 168.1 75.8485H157.978L156.267 72.3002C155.402 70.5021 154.002 69.0351 152.325 68.1693L151.573 67.7803V65.4307L168.319 65.4811C168.866 65.483 169.312 65.973 169.312 66.5742Z" fill="white"/>
</mask>
<g mask="url(#mask1_15_85)">
<path d="M161.152 64.8359L167.544 76.4431H165.609L159.152 64.8584L161.152 64.8359Z" fill="#EAF9E7"/>
<path d="M169.853 66.5744V74.5182C169.853 74.6771 169.831 74.8305 169.797 74.9773L163.961 64.8745L168.319 64.8876C169.167 64.8904 169.853 65.6431 169.853 66.5744Z" fill="#EAF9E7"/>
</g>
<mask id="mask2_15_85" style="mask-type:luminance" maskUnits="userSpaceOnUse" x="151" y="65" width="19" height="11">
<path d="M169.312 66.5742V74.5189C169.312 75.252 168.768 75.8485 168.1 75.8485H157.978L156.267 72.3002C155.402 70.5021 154.002 69.0351 152.325 68.1693L151.573 67.7803V65.4307L168.319 65.4811C168.866 65.483 169.312 65.973 169.312 66.5742Z" fill="white"/>
</mask>
<g mask="url(#mask2_15_85)">
<path d="M161.152 64.8359L167.544 76.4431H165.609L159.152 64.8584L161.152 64.8359Z" fill="#EAF9E7"/>
<path d="M169.853 66.5744V74.5182C169.853 74.6771 169.831 74.8305 169.797 74.9773L163.961 64.8745L168.319 64.8876C169.167 64.8904 169.853 65.6431 169.853 66.5744Z" fill="#EAF9E7"/>
</g>
<path d="M140.388 50.2818C140.505 48.9671 141.501 47.9751 142.707 47.9751H148.335V70.0749L139.011 65.183L140.388 50.2818Z" fill="#EAF9E7"/>
<mask id="mask3_15_85" style="mask-type:luminance" maskUnits="userSpaceOnUse" x="139" y="47" width="10" height="24">
<path d="M140.388 50.2818C140.505 48.9671 141.501 47.9751 142.707 47.9751H148.335V70.0749L139.011 65.183L140.388 50.2818Z" fill="white"/>
</mask>
<g mask="url(#mask3_15_85)">
<path d="M142.706 47.3804L148.875 65.3101V69.8645L141.238 47.8292C141.67 47.5468 142.17 47.3804 142.706 47.3804Z" fill="#EAF9E7"/>
</g>
<path d="M172.027 78.7062C171.79 81.1859 168.683 82.7277 166.22 82.7277H136.152C133.81 82.7277 131.913 80.6454 131.913 78.0788V72.2967C131.913 67.9144 133.074 64.3613 137.069 64.3613C137.069 64.3613 137.668 64.5352 138.362 64.87L150.734 70.8559C151.97 71.4534 153.011 72.452 153.716 73.718L155.934 77.7048C156.281 78.3257 156.896 78.7062 157.561 78.7062H172.027Z" fill="#013237"/>
<path d="M267.655 150.782L252.801 140.987L237.947 150.782L237.208 149.524L252.801 139.243L268.394 149.524L267.655 150.782Z" fill="#4CA771"/>
<path d="M261.801 129.336H243.8V57.3467H261.801V129.336ZM245.12 127.939H260.481V58.7436H245.12V127.939Z" fill="#013237"/>
<path d="M252.739 143.789C250.572 143.789 248.664 142.408 247.877 140.27L250.049 139.374C250.485 140.556 251.54 141.319 252.739 141.319C254.33 141.319 255.624 139.95 255.624 138.265C255.624 136.58 254.33 135.21 252.739 135.21V132.742C255.616 132.742 257.956 135.219 257.956 138.265C257.956 141.31 255.616 143.789 252.739 143.789Z" fill="#013237"/>
<path d="M262.2 131.002L252.727 135.201L243.255 131.002V127.116H262.2V131.002Z" fill="#013237"/>
<path d="M249.978 127.116C249.978 128.729 248.743 130.036 247.218 130.036C245.695 130.036 244.459 128.729 244.459 127.116C244.459 125.502 245.695 124.194 247.218 124.194C248.744 124.194 249.978 125.502 249.978 127.116Z" fill="#4CA771"/>
<path d="M248.656 127.116C248.656 127.956 248.013 128.637 247.219 128.637C246.425 128.637 245.781 127.956 245.781 127.116C245.781 126.275 246.425 125.595 247.219 125.595C248.013 125.594 248.656 126.274 248.656 127.116Z" fill="#013237"/>
<path d="M261.141 127.116C261.141 128.729 259.906 130.036 258.381 130.036C256.857 130.036 255.622 128.729 255.622 127.116C255.622 125.502 256.857 124.194 258.381 124.194C259.906 124.194 261.141 125.502 261.141 127.116Z" fill="#4CA771"/>
<path d="M259.819 127.116C259.819 127.956 259.176 128.637 258.381 128.637C257.587 128.637 256.944 127.956 256.944 127.116C256.944 126.275 257.587 125.595 258.381 125.595C259.176 125.594 259.819 126.274 259.819 127.116Z" fill="#013237"/>
<path d="M265.407 56.4717C265.407 57.7162 264.454 58.725 263.279 58.725H242.819C241.644 58.725 240.691 57.7162 240.691 56.4717C240.691 55.2272 241.644 54.2192 242.819 54.2192H263.279C264.454 54.2192 265.407 55.2272 265.407 56.4717Z" fill="#013237"/>
<path d="M249.978 58.7246C249.978 60.3366 248.743 61.6437 247.219 61.6437C245.695 61.6437 244.459 60.3366 244.459 58.7246C244.459 57.1099 245.695 55.8027 247.219 55.8027C248.744 55.8027 249.978 57.1099 249.978 58.7246Z" fill="#4CA771"/>
<path d="M248.657 58.7248C248.657 59.5635 248.014 60.2452 247.22 60.2452C246.426 60.2452 245.782 59.5635 245.782 58.7248C245.782 57.8833 246.426 57.2026 247.22 57.2026C248.014 57.2017 248.657 57.8833 248.657 58.7248Z" fill="#013237"/>
<path d="M261.141 58.7246C261.141 60.3366 259.906 61.6437 258.381 61.6437C256.857 61.6437 255.622 60.3366 255.622 58.7246C255.622 57.1099 256.857 55.8027 258.381 55.8027C259.906 55.8027 261.141 57.1099 261.141 58.7246Z" fill="#4CA771"/>
<path d="M259.819 58.7248C259.819 59.5635 259.176 60.2452 258.381 60.2452C257.587 60.2452 256.944 59.5635 256.944 58.7248C256.944 57.8833 257.587 57.2026 258.381 57.2026C259.176 57.2017 259.819 57.8833 259.819 58.7248Z" fill="#013237"/>
<path d="M253.171 139.492L252.431 140.749L267.655 150.787L268.394 149.53L253.171 139.492Z" fill="#4CA771"/>
<path d="M173.739 324.138C173.739 325.24 172.888 326.131 171.84 326.131H133.382C132.331 326.131 131.483 325.24 131.483 324.138V317.631C131.483 316.528 132.332 315.637 133.382 315.637H171.84C172.889 315.637 173.739 316.529 173.739 317.631V324.138Z" fill="#013237"/>
<path d="M139.063 329.063C139.063 330.681 137.823 331.994 136.294 331.994C134.765 331.994 133.525 330.681 133.525 329.063C133.525 327.444 134.765 326.131 136.294 326.131C137.823 326.131 139.063 327.444 139.063 329.063Z" fill="#4CA771"/>
<path d="M137.928 329.063C137.928 330.019 137.196 330.793 136.294 330.793C135.39 330.793 134.659 330.019 134.659 329.063C134.659 328.108 135.39 327.333 136.294 327.333C137.196 327.333 137.928 328.108 137.928 329.063Z" fill="#013237"/>
<path d="M172.289 329.063C172.289 330.681 171.048 331.994 169.519 331.994C167.99 331.994 166.75 330.681 166.75 329.063C166.75 327.444 167.99 326.131 169.519 326.131C171.048 326.131 172.289 327.444 172.289 329.063Z" fill="#4CA771"/>
<path d="M171.153 329.063C171.153 330.019 170.421 330.793 169.519 330.793C168.617 330.793 167.885 330.019 167.885 329.063C167.885 328.108 168.617 327.333 169.519 327.333C170.421 327.333 171.153 328.108 171.153 329.063Z" fill="#013237"/>
<path d="M155.091 329.063C155.091 330.681 153.852 331.994 152.323 331.994C150.794 331.994 149.554 330.681 149.554 329.063C149.554 327.444 150.794 326.131 152.323 326.131C153.852 326.131 155.091 327.444 155.091 329.063Z" fill="#4CA771"/>
<path d="M153.958 329.063C153.958 330.019 153.226 330.793 152.324 330.793C151.421 330.793 150.69 330.019 150.69 329.063C150.69 328.108 151.421 327.333 152.324 327.333C153.225 327.333 153.958 328.108 153.958 329.063Z" fill="#013237"/>
<path d="M273.218 181.637V188.495H231.582V181.637V149.17H273.218V181.637ZM261.006 178.673V158.992H243.78V178.673H261.006Z" fill="#013237"/>
<path d="M294.832 223.243L308.17 237.346L309.386 236.676L295.547 222.29L295.208 222.091V222.12C295.165 222.268 295.123 222.431 295.067 222.578L295.028 222.667C295.028 222.667 294.972 222.859 294.832 223.243Z" fill="#013237"/>
<path d="M308.17 237.346L307.71 237.834L324.669 255.506C327.691 257.009 330.252 258.307 332.374 259.536L309.847 236.174L309.09 236.359L308.17 237.346Z" fill="#013237"/>
<path d="M281.509 234.444C282.009 234.444 282.469 234.591 282.872 234.856C282.872 234.856 285.031 235.918 288.471 237.597C297.102 241.858 313.795 250.082 324.67 255.505C327.691 257.009 330.253 258.307 332.076 259.22C333.093 259.751 333.887 260.164 334.388 260.428C340.403 263.658 339.567 264.467 338.732 266.088C337.812 264.556 336.212 263.539 334.374 263.539C331.533 263.539 329.222 265.986 329.222 268.993C329.222 269.331 329.25 269.672 329.306 269.994L329.766 274.755L285.588 243.42V243.405L279.713 239.249C279.211 238.732 278.891 238.01 278.891 237.213C278.891 236.83 278.961 236.461 279.1 236.139C279.489 235.135 280.422 234.444 281.509 234.444ZM281.509 237.908C281.87 237.908 282.164 237.597 282.164 237.214C282.164 236.831 281.871 236.522 281.509 236.522C281.146 236.522 280.854 236.832 280.854 237.214C280.854 237.597 281.146 237.908 281.509 237.908ZM325.463 264.467C326.187 264.467 326.773 263.848 326.773 263.083C326.773 262.315 326.187 261.696 325.463 261.696C324.739 261.696 324.155 262.315 324.155 263.083C324.155 263.848 324.739 264.467 325.463 264.467Z" fill="#83CBA0"/>
<path d="M281.51 235.417C280.567 235.417 279.808 236.219 279.808 237.213C279.808 238.206 280.567 239.014 281.51 239.014C282.448 239.014 283.206 238.206 283.206 237.213C283.207 236.219 282.448 235.417 281.51 235.417Z" fill="#013237"/>
<path d="M324.94 261.235C323.688 261.235 322.675 262.306 322.675 263.634C322.675 264.959 323.688 266.031 324.94 266.031C326.194 266.031 327.207 264.959 327.207 263.634C327.207 262.306 326.194 261.235 324.94 261.235Z" fill="#013237"/>
<path d="M280.199 231.216C280.199 231.216 282.427 229.521 284.891 227.326C287.356 225.13 290.03 222.447 290.933 220.5C291.311 219.734 292.076 219.203 292.953 219.203C294.221 219.203 295.251 220.295 295.251 221.636C295.251 221.784 295.235 221.946 295.208 222.092V222.121L294.818 223.226L294.832 223.243C294.262 224.761 292.479 229.329 288.471 237.598C285.031 235.919 282.872 234.856 282.872 234.856C282.469 234.591 282.009 234.445 281.509 234.445C280.423 234.445 279.489 235.136 279.1 236.139L277.93 235.683C279.322 232.941 280.199 231.216 280.199 231.216ZM292.953 221.975C293.133 221.975 293.287 221.828 293.287 221.636C293.287 221.445 293.134 221.282 292.953 221.282C292.772 221.282 292.631 221.445 292.631 221.636C292.631 221.828 292.772 221.975 292.953 221.975Z" fill="#83CBA0"/>
<path d="M292.953 221.281C292.772 221.281 292.631 221.444 292.631 221.635C292.631 221.828 292.772 221.974 292.953 221.974C293.133 221.974 293.288 221.827 293.288 221.635C293.288 221.444 293.133 221.281 292.953 221.281Z" fill="#41383D"/>
<path d="M292.925 223.026C293.682 223.026 294.298 222.377 294.298 221.577C294.298 220.776 293.682 220.127 292.925 220.127C292.171 220.127 291.555 220.776 291.555 221.577C291.555 222.377 292.17 223.026 292.925 223.026Z" fill="#013237"/>
<path d="M258.27 274.255L253.634 282.95L254.247 283.35L254.762 283.657L259.412 274.932L258.841 274.593L258.27 274.255Z" fill="#013237"/>
<path d="M262.2 267.389L258.488 274.356L259.094 274.718L262.806 267.75L262.2 267.389Z" fill="#013237"/>
<path d="M256.099 283.657L255.153 285.204C255.153 285.204 260.263 292.588 260.707 293.163H260.722C260.61 291.719 260.526 290.259 260.47 288.786C260.47 288.329 260.554 287.886 260.707 287.49L256.099 283.657Z" fill="#83CBA0"/>
<path d="M255.764 284.322L259.147 286.518C259.147 286.518 276.383 261.357 284.556 245.41C284.905 244.732 285.253 244.069 285.588 243.421V243.406L279.712 239.25C279.211 238.733 278.891 238.011 278.891 237.213C278.891 236.831 278.961 236.461 279.099 236.139L277.93 235.683C274.058 243.258 266.207 258.674 261.876 267.238C261.876 267.238 262.224 267.327 262.559 267.637C263.13 268.152 263.644 269.271 262.42 271.601C260.457 275.316 255.764 284.322 255.764 284.322Z" fill="#83CBA0"/>
<path d="M253.634 281.296C253.186 281.653 253.096 282.327 253.434 282.803L257.585 288.639C257.923 289.114 258.559 289.209 259.008 288.851C259.456 288.494 259.545 287.82 259.208 287.345L255.056 281.509C254.718 281.033 254.082 280.938 253.634 281.296Z" fill="#83CBA0"/>
<path d="M268.136 288.115L265.914 286.399C265.372 285.838 264.633 285.455 263.826 285.425C263.77 285.411 263.715 285.411 263.659 285.411C262.323 285.411 261.195 286.267 260.707 287.49C260.555 287.886 260.471 288.328 260.471 288.786C260.526 290.259 260.61 291.719 260.722 293.163C260.792 294.387 260.888 295.596 260.987 296.76L266.276 290.083L268.324 291.653C267.978 290.531 267.929 289.3 268.136 288.115ZM263.658 290.083C262.976 290.083 262.433 289.508 262.433 288.786C262.433 288.079 262.976 287.49 263.658 287.49C264.341 287.49 264.883 288.079 264.883 288.786C264.883 289.508 264.341 290.083 263.658 290.083Z" fill="#013237"/>
<path d="M288.348 306.499L266.434 289.698L260.986 296.76C261.07 297.747 261.153 298.691 261.25 299.621C261.291 300.091 261.347 300.562 261.389 301.006C261.737 304.338 262.114 307.182 262.378 309.156C262.463 309.672 262.532 310.13 262.587 310.527C262.739 311.576 262.837 312.164 262.837 312.164C264.551 314.094 266.443 315.583 268.407 316.702C269.021 317.057 269.661 317.381 270.285 317.66C278.806 321.508 288.205 319.194 291.38 316.408C292.773 315.199 294.485 313.238 296.142 311.145H296.156C296.616 310.57 297.074 309.967 297.521 309.378C298.983 307.476 300.476 305.218 301.422 303.891L288.348 306.499Z" fill="#83CBA0"/>
<path d="M303.749 302.218C303.873 302.903 303.449 303.565 302.802 303.697L288.824 306.559C288.177 306.691 287.552 306.241 287.428 305.556C287.305 304.871 287.728 304.209 288.375 304.078L302.353 301.216C303.001 301.085 303.626 301.532 303.749 302.218Z" fill="#013237"/>
<path d="M289.497 306.046C289.113 306.613 288.37 306.745 287.833 306.339L264.03 288.023C263.494 287.617 263.37 286.828 263.752 286.26C264.136 285.693 264.88 285.562 265.416 285.967L289.219 304.283C289.756 304.689 289.88 305.478 289.497 306.046Z" fill="#013237"/>
<path d="M263.659 287.49C262.976 287.49 262.434 288.079 262.434 288.786C262.434 289.507 262.976 290.083 263.659 290.083C264.341 290.083 264.884 289.508 264.884 288.786C264.884 288.079 264.341 287.49 263.659 287.49Z" fill="white"/>
<path d="M363.066 313.598H331.925L330.572 307.922H364.422L363.066 313.598Z" fill="#013237"/>
<path d="M389.296 332.301C357.518 333.174 338.39 333.174 306.611 332.301H306.596C298.878 332.089 295.567 327.784 295.567 322.546C295.567 317.306 298.878 313.001 306.596 312.789H306.611C338.39 311.917 357.518 311.917 389.296 312.789C397.013 313.001 400 317.306 400 322.546C400 327.784 397.013 332.089 389.296 332.301Z" fill="#013237"/>
<path d="M386.231 318.627H308.255V326.462H386.231V318.627Z" fill="#4CA771"/>
<path d="M311.912 322.546C311.912 326.002 309.265 328.802 306 328.802C302.736 328.802 300.09 326.001 300.09 322.546C300.09 319.088 302.736 316.289 306 316.289C309.265 316.289 311.912 319.088 311.912 322.546Z" fill="#4CA771"/>
<path d="M310.182 322.546C310.182 324.987 308.309 326.969 306 326.969C303.693 326.969 301.821 324.987 301.821 322.546C301.821 320.101 303.693 318.12 306 318.12C308.31 318.121 310.182 320.101 310.182 322.546Z" fill="#4CA771"/>
<path d="M395.241 322.546C395.241 325.936 392.644 328.685 389.442 328.685C386.239 328.685 383.641 325.937 383.641 322.546C383.641 319.153 386.239 316.406 389.442 316.406C392.644 316.406 395.241 319.153 395.241 322.546Z" fill="#4CA771"/>
<path d="M393.543 322.546C393.543 324.943 391.707 326.887 389.442 326.887C387.175 326.887 385.339 324.943 385.339 322.546C385.339 320.146 387.175 318.204 389.442 318.204C391.707 318.205 393.543 320.146 393.543 322.546Z" fill="#4CA771"/>
<path d="M374.058 282.695L372.278 262.062C371.952 258.278 368.955 255.38 365.364 255.38H336.238C333.577 255.38 331.199 257.132 330.273 259.77L325.288 273.982C323.957 277.774 323.275 281.787 323.275 285.834V302.285L376.639 303.224L374.058 282.695Z" fill="#013237"/>
<path d="M352.971 280.505H329.166C328.029 280.505 327.233 279.317 327.608 278.183L333.212 261.234C333.775 259.526 335.297 258.384 337.005 258.384H352.97V280.505H352.971Z" fill="#EAF9E7"/>
<path d="M339.58 258.385L328.002 276.992L327.608 278.183C327.234 279.318 328.03 280.505 329.167 280.505H335.114L347.89 258.384H339.58V258.385Z" fill="#EAF9E7"/>
<path d="M351.142 258.385L339.308 280.505H341.948L352.971 260.096V258.385H351.142Z" fill="#EAF9E7"/>
<path d="M352.971 282.846V287.501L351.429 288.27C349.134 289.416 347.251 291.318 346.064 293.696L343.36 299.113H328.192C326.786 299.113 325.645 297.905 325.645 296.418V285.282C325.645 283.978 326.641 282.923 327.872 282.918L352.971 282.846Z" fill="#EAF9E7"/>
<path d="M338.279 282.846L328.999 299.113H331.809L341.182 282.88L338.279 282.846Z" fill="#EAF9E7"/>
<path d="M325.646 285.282V296.417C325.646 296.64 325.678 296.854 325.728 297.06L334.201 282.901L327.872 282.918C326.641 282.923 325.646 283.978 325.646 285.282Z" fill="#EAF9E7"/>
<path d="M371.092 282.894L369.207 262.369C368.999 260.109 367.204 258.385 365.059 258.385H356.101V291.594L371.092 282.894Z" fill="#EAF9E7"/>
<path d="M365.059 258.385L356.101 283.511V289.895L367.189 259.012C366.563 258.615 365.837 258.385 365.059 258.385Z" fill="#EAF9E7"/>
<path d="M323.275 302.285C324.776 305.721 328.026 307.922 331.603 307.922H385.13C388.529 307.922 391.284 305.004 391.284 301.404V293.303C391.284 287.161 386.582 282.181 380.78 282.181H374.293C373.192 282.181 372.103 282.424 371.093 282.894L353.131 291.283C351.336 292.122 349.827 293.521 348.804 295.295L345.584 300.882C345.08 301.753 344.185 302.285 343.221 302.285H323.275Z" fill="#83CBA0"/>
<path d="M382.431 286.646V304.119C382.431 305.002 383.082 305.717 383.883 305.717C384.688 305.717 385.34 305.002 385.34 304.119V286.646C385.34 285.764 384.688 285.05 383.883 285.05C383.082 285.05 382.431 285.764 382.431 286.646Z" fill="#4CA771"/>
<path d="M375.573 286.646V304.119C375.573 305.002 376.224 305.717 377.03 305.717C377.836 305.717 378.487 305.002 378.487 304.119V286.646C378.487 285.764 377.836 285.05 377.03 285.05C376.224 285.05 375.573 285.764 375.573 286.646Z" fill="#4CA771"/>
<path d="M368.721 287.954V304.119C368.721 305.002 369.372 305.717 370.178 305.717C370.984 305.717 371.635 305.002 371.635 304.119V287.954C371.635 287.071 370.983 286.358 370.178 286.358C369.373 286.358 368.721 287.071 368.721 287.954Z" fill="#4CA771"/>
<path d="M361.87 292.11V304.119C361.87 305.001 362.517 305.716 363.323 305.716C364.129 305.716 364.78 305.001 364.78 304.119V292.11C364.78 291.23 364.129 290.514 363.323 290.514C362.516 290.514 361.87 291.23 361.87 292.11Z" fill="#4CA771"/>
<path d="M355.012 296.182V304.119C355.012 305.001 355.663 305.717 356.47 305.717C357.276 305.717 357.926 305.001 357.926 304.119V296.182C357.926 295.3 357.276 294.586 356.47 294.586C355.663 294.586 355.012 295.3 355.012 296.182Z" fill="#4CA771"/>
<path d="M288.471 237.597L285.588 243.406L286.59 244.132L288.921 237.82L288.471 237.597Z" fill="#4CA771"/>
<path d="M256.32 283.287L259.289 286.311L259.794 285.567L256.478 282.952L256.32 283.287Z" fill="#4CA771"/>
<path fill-rule="evenodd" clip-rule="evenodd" d="M62.1294 218.428C63.35 219.954 64.6484 221.392 65.9211 222.829C65.5237 223.473 64.9504 223.802 64.7332 224.557C64.4761 225.452 64.2421 226.779 64.3101 227.892C64.3966 229.333 64.379 230.323 64.0398 231.982C63.8128 232.527 63.4957 232.457 63.426 232.442C62.268 229.206 61.2046 225.283 59.9592 221.646C59.9354 221.575 59.3516 220.086 59.3516 220.086C59.4876 219.914 60.5563 219.219 60.7409 219.109C61.247 218.8 61.6171 218.587 62.1294 218.428Z" fill="#C0E6BA"/>
<path fill-rule="evenodd" clip-rule="evenodd" d="M63.4259 232.442L59.3506 220.086C60.6613 220.787 64.6748 229.33 63.4259 232.442Z" fill="#013237"/>
<path fill-rule="evenodd" clip-rule="evenodd" d="M62.1292 218.428C62.6538 218.918 64.506 221.477 65.9209 222.829C64.1818 222.039 62.6918 220.406 62.1292 218.428Z" fill="#F2B891"/>
<path fill-rule="evenodd" clip-rule="evenodd" d="M51.9868 161.588C56.4454 161.79 59.2524 166.176 61.9878 169.657C66.6433 175.585 71.2397 181.06 75.7381 187.426C76.8315 188.975 77.879 190.598 78.8753 192.246C80.2532 194.524 81.8501 196.968 81.6646 200.33C81.5251 202.861 80.3035 205.103 79.1129 207.213C76.2698 212.255 72.2943 216.63 68.605 221.266C68.3462 221.592 67.9903 222.039 67.5124 222.64C67.3058 222.9 66.3969 224.017 66.4208 224.014C66.169 224.055 64.649 222.809 64.195 222.427C62.0681 220.642 60.0579 218.979 57.9902 217.364C61.1902 210.719 64.7108 204.321 67.4965 197.36C65.7954 195.023 63.9759 193.179 61.9789 190.726C60.8572 189.348 59.2267 187.313 57.924 185.647C57.5194 185.128 56.8287 184.362 56.6954 183.939C56.464 183.191 56.6159 181.963 56.5779 180.979C56.4666 178.264 56.2078 175.039 55.5807 172.053C54.7478 168.089 53.385 164.856 51.9868 161.588Z" fill="#013237"/>
<path d="M56.5789 180.979C56.6169 181.963 56.4649 183.19 56.6964 183.939C56.8297 184.361 57.5204 185.128 57.9249 185.647C59.2286 187.313 60.8582 189.348 61.9799 190.726C63.976 193.179 65.7955 195.024 67.4975 197.36C64.7118 204.321 61.1912 210.719 57.9912 217.364C58.0928 217.444 58.1943 217.525 58.295 217.605C58.8788 217.053 59.506 216.543 60.1728 216.085C63.3074 209.619 66.7203 203.365 69.4354 196.58C67.7342 194.243 65.9148 192.397 63.9186 189.945C62.796 188.567 61.1664 186.533 59.8628 184.865C59.4583 184.348 58.7667 183.581 58.6351 183.157C58.4028 182.41 58.5556 181.183 58.5149 180.197C58.4063 177.484 58.1475 174.258 57.5204 171.273C56.8041 167.868 55.6974 165.005 54.5139 162.195C53.7304 161.85 52.8949 161.63 51.9878 161.588C53.386 164.856 54.7488 168.089 55.5826 172.053C56.2088 175.039 56.4676 178.265 56.5789 180.979Z" fill="#013237"/>
<path fill-rule="evenodd" clip-rule="evenodd" d="M57.177 181.819C57.2149 182.849 57.0277 184.133 57.2909 184.912C57.4411 185.354 58.2404 186.149 58.7076 186.688C59.6659 187.788 61.8069 190.511 61.8069 190.511C63.039 188.602 64.9733 164.933 53.2554 161.765C54.8567 165.169 55.1508 168.361 56.0897 172.499C56.7954 175.614 57.0719 178.982 57.177 181.819Z" fill="#013237"/>
<path d="M69.2464 197.048L70.5448 193.964L67.5859 197.16L69.2464 197.048Z" fill="#013237"/>
<path fill-rule="evenodd" clip-rule="evenodd" d="M80.8566 340.454C80.8566 340.454 82.6337 349.701 84.3966 351.482C84.3966 351.482 81.0474 354.039 74.3604 349.558L72.1213 341.268L80.8566 340.454Z" fill="#C0E6BA"/>
<path fill-rule="evenodd" clip-rule="evenodd" d="M72.1213 341.269C73.1326 343.298 78.8605 343.856 81.0368 341.659L72.1213 341.269Z" fill="#013237"/>
<path fill-rule="evenodd" clip-rule="evenodd" d="M72.8899 344.83C76.3495 344.787 79.7862 344.771 83.0631 344.922C83.4217 344.861 83.1779 345.441 83.2521 345.677C83.9887 347.691 86.082 349.171 88.1064 349.986C91.2083 351.235 95.0884 351.489 95.0601 355.791C94.8446 356.14 94.1363 355.988 93.609 355.993C86.0043 356.068 78.5091 355.874 70.8726 355.933C70.93 353.914 71.1146 352.11 71.4873 350.339C71.8574 348.563 72.2416 346.86 72.7124 345.119C72.7053 344.956 72.7751 344.872 72.8899 344.83Z" fill="#013237"/>
<path fill-rule="evenodd" clip-rule="evenodd" d="M40.812 340.509C40.812 340.509 42.59 349.757 44.352 351.537C44.352 351.537 41.0037 354.095 34.3167 349.615L32.0776 341.325L40.812 340.509Z" fill="#C0E6BA"/>
<path fill-rule="evenodd" clip-rule="evenodd" d="M32.0767 341.324C33.0889 343.354 38.6957 343.599 40.9868 341.715L32.0767 341.324Z" fill="#013237"/>
<path fill-rule="evenodd" clip-rule="evenodd" d="M32.8451 344.886C36.3048 344.843 39.7406 344.827 43.0183 344.977C43.376 344.917 43.1322 345.498 43.2064 345.735C43.943 347.749 48.1252 349.226 50.1496 350.039C53.2515 351.29 57.8806 351.541 57.8523 355.843C57.6368 356.192 56.9293 356.04 56.4021 356.046C48.7973 356.119 39.7132 356.207 32.0758 356.265C32.0758 356.265 31.9159 350.486 32.6658 345.175C32.6897 345.013 32.7294 344.929 32.8451 344.886Z" fill="#013237"/>
<path d="M81.8342 341.448C79.9652 329.851 77.8631 318.121 76.0657 306.262C75.1745 300.372 74.2957 294.462 73.2782 288.569C72.2598 282.66 71.5091 276.691 70.4907 270.809C69.5094 265.126 68.4955 259.236 67.447 253.384C65.3361 241.604 63.6509 230.066 59.9448 220.01C58.9962 217.436 57.8868 214.963 56.4454 212.837L28.3442 212.876C27.0749 214.929 25.9859 217.177 25.2873 219.857C24.0004 224.791 23.693 230.637 23.7018 236.954C23.7089 243.113 23.8264 249.275 24.1099 255.322C24.9569 273.378 26.4531 290.448 27.8416 307.872C28.7354 319.085 29.684 330.309 30.2052 341.731L42.8143 341.714C42.8081 341.443 42.8143 341.127 42.8019 340.834C42.7834 340.353 42.8002 339.785 42.8002 339.293C42.7913 332.101 42.5864 324.956 42.7092 318.041C42.9203 306.084 42.8779 293.687 43.1773 281.91C43.4335 271.856 43.7532 261.991 44.2973 252.478C44.4086 250.544 44.4094 248.599 44.6753 246.712C48.6313 263.26 52.5547 279.545 56.8905 295.497C61.1654 311.223 66.2776 326.4 70.8352 341.673L81.8571 341.659C81.8571 341.659 81.8721 341.574 81.8342 341.448Z" fill="#013237"/>
<path d="M70.8362 341.672L74.356 341.669C74.2526 341.332 74.0892 340.904 73.9894 340.521C72.8809 336.294 71.8149 331.749 70.8212 327.789C69.5396 322.67 68.3879 317.969 67.2017 313.18C64.7622 303.323 62.3138 293.78 59.9626 283.962C55.4148 264.968 50.572 246.36 45.9377 227.403C45.6815 226.352 45.6144 225.493 44.9714 225.93C44.7303 226.241 44.9467 227.516 44.974 228.209C45.0103 229.13 44.9988 230.015 44.9767 230.755C44.8733 234.334 44.8027 237.321 44.6676 240.61C44.5995 242.252 44.4556 245.143 44.6755 246.71C48.6315 263.258 52.5549 279.543 56.8907 295.495C61.1665 311.222 66.2787 326.399 70.8362 341.672Z" fill="#013237"/>
<path d="M29.4614 293.8C28.9862 287.757 28.6497 281.689 28.3741 275.461C28.1074 269.383 27.8274 263.07 27.8194 256.694C27.8159 253.484 27.8115 250.234 27.8071 247.025C27.8035 243.838 28.027 240.687 28.0226 237.57C28.019 234.604 28.178 231.401 28.3909 228.327C28.7875 222.592 29.3916 217.511 30.6741 212.874L28.3432 212.876C27.074 214.93 25.9849 217.177 25.2863 219.857C23.9994 224.791 23.692 230.637 23.7009 236.954C23.7079 243.114 23.8254 249.275 24.1089 255.322C24.956 273.378 26.4522 290.448 27.8406 307.872C28.7345 319.085 29.6831 330.31 30.2042 341.731L33.5243 341.726C32.1508 332.051 31.3356 322.107 30.6237 312C30.1989 305.968 29.933 299.793 29.4614 293.8Z" fill="#013237"/>
<path fill-rule="evenodd" clip-rule="evenodd" d="M60.9668 220.991C49.0501 223.59 34.3309 223.777 23.6189 221.646C24.8457 208.856 22.915 194.055 22.2216 181.535C21.4956 168.393 27.6085 159.829 38.952 157.685C41.2873 157.242 44.6816 157.201 46.8181 157.945C49.686 158.944 53.4548 162.409 55.0614 165.025C57.054 168.268 57.9417 172.537 58.3241 177.412C58.688 182.06 58.0865 186.998 58.2941 191.709C58.5105 196.627 59.6384 201.537 60.262 206.129C60.9588 211.258 61.2167 216.293 60.9668 220.991Z" fill="#013237"/>
<path d="M40.4269 172.197C39.3564 167.547 38.4414 161.858 35.9586 158.453C25.9965 161.116 21.5627 170.068 22.2233 182.488C22.9167 195.516 24.8474 210.917 23.6224 224.227C30.3483 225.62 38.6525 226.061 46.8516 225.527C45.9887 213.672 44.7054 201.352 43.2462 189.946C42.4637 183.839 41.6864 177.673 40.4269 172.197Z" fill="#4CA771"/>
<path d="M24.9623 182.483C24.3529 171.04 28.0731 162.546 36.4542 159.197C36.2952 158.939 36.1318 158.69 35.9596 158.453C25.9975 161.116 21.5636 170.068 22.2243 182.488C22.9176 195.516 24.8484 210.917 23.6233 224.227C28.9096 225.323 35.1709 225.826 41.5903 225.733C36.1407 225.666 30.8933 225.161 26.3632 224.223C27.5856 210.913 25.6548 195.511 24.9623 182.483Z" fill="#4CA771"/>
<path d="M61.6369 208.08C60.9479 203.301 59.7026 198.192 59.4632 193.074C59.2344 188.171 59.8995 183.034 59.4977 178.199C59.0763 173.126 58.4289 168.662 56.2288 165.289C54.5056 162.647 50.2024 159.199 47.074 158.046C53.0703 168.437 55.3438 189.577 52.0687 225.107C55.6317 224.742 59.1179 224.223 62.4123 223.546C62.6897 218.656 62.4044 213.417 61.6369 208.08Z" fill="#4CA771"/>
<path fill-rule="evenodd" clip-rule="evenodd" d="M49.3508 155.049L49.5072 159.745C47.8396 164.208 41.6834 164.087 38.9984 162.065C37.2504 160.751 37.4765 159.67 37.42 157.747C37.3449 155.143 37.2389 152.475 37.2548 149.954C36.3866 149.933 35.0008 149.344 34.3631 148.079C33.8826 147.119 34.1308 145.799 35.1492 145.396C33.4472 140.338 33.8817 135.679 38.434 132.773C42.7159 130.039 48.1567 130.706 50.9283 134.724C54.5593 139.99 55.5636 147.113 54.1901 151.05C53.5577 152.868 51.9175 155.035 49.3508 155.049Z" fill="#C0E6BA"/>
<path fill-rule="evenodd" clip-rule="evenodd" d="M49.0196 128.006C47.7336 128.068 45.5423 128.846 43.6327 129.67C42.1798 130.293 40.862 130.488 39.5318 131.148C37.4324 132.191 36.3654 133.102 35.6747 134.361C35.3824 134.892 35.3727 135.632 34.9425 136.329C34.6634 136.776 34.3313 136.756 33.6945 137.684C32.0208 140.115 32.6814 143.267 35.1492 145.397C35.8107 145.455 36.0996 145.436 36.664 145.738C37.7671 146.331 38.6839 148.389 39.6652 147.821C40.809 147.16 39.3084 144.775 39.2616 143.218C39.205 141.332 40.6801 139.889 40.9574 138.328C41.0916 137.561 41.0722 136.878 40.9963 136.228C43.1143 137.831 46.5395 137.461 50.0283 135.264C50.288 135.099 50.5635 134.892 50.8409 134.658C50.2155 132.469 49.6759 130.236 49.0196 128.006Z" fill="#013237"/>
<path fill-rule="evenodd" clip-rule="evenodd" d="M42.8257 152.998C44.5992 154.185 47.3647 155.222 49.352 155.048L49.4341 157.514C48.1234 157.661 44.3793 157.178 42.8257 152.998Z" fill="#013237"/>
<path fill-rule="evenodd" clip-rule="evenodd" d="M53.2421 138.308C53.2792 138.603 52.4215 138.958 51.3307 139.094C50.2417 139.233 49.3293 139.106 49.2949 138.808C49.2578 138.512 50.1127 138.16 51.2044 138.021C52.2952 137.884 53.2067 138.01 53.2421 138.308Z" fill="#013237"/>
<path fill-rule="evenodd" clip-rule="evenodd" d="M52.9422 141.594C53.0562 142.091 52.8663 142.567 52.5192 142.655C52.1703 142.742 51.7922 142.41 51.6783 141.913C51.5626 141.417 51.7516 140.941 52.1005 140.853C52.4458 140.764 52.8274 141.096 52.9422 141.594Z" fill="#013237"/>
<path fill-rule="evenodd" clip-rule="evenodd" d="M47.2664 139.394C47.3804 139.666 46.6473 140.252 45.6395 140.696C44.6255 141.143 43.714 141.28 43.6028 141.006C43.4915 140.73 44.2219 140.146 45.2332 139.699C46.2454 139.254 47.1551 139.117 47.2664 139.394Z" fill="#013237"/>
<path fill-rule="evenodd" clip-rule="evenodd" d="M46.5447 143.572C46.6613 144.068 46.475 144.543 46.1243 144.632C45.7781 144.72 45.3983 144.388 45.2844 143.89C45.1669 143.394 45.3585 142.919 45.7074 142.829C46.0554 142.742 46.4317 143.073 46.5447 143.572Z" fill="#013237"/>
<path d="M50.3088 146.447C50.3256 146.443 50.3406 146.438 50.3574 146.432C50.7876 146.246 51.0605 145.989 51.1956 145.642C51.465 144.945 51.0958 144.071 50.6303 142.965C50.3327 142.261 49.9944 141.464 49.7683 140.581C49.7259 140.422 49.5652 140.322 49.4123 140.368C49.256 140.412 49.1624 140.578 49.2048 140.74C49.4441 141.666 49.7904 142.486 50.096 143.211C50.4917 144.146 50.8344 144.953 50.6586 145.413C50.5835 145.6 50.4148 145.75 50.1366 145.868C49.9873 145.931 49.9176 146.109 49.9785 146.266C50.0306 146.404 50.1728 146.477 50.3088 146.447Z" fill="#013237"/>
<path d="M50.5445 150.3C50.2901 150.292 50.0021 150.249 49.6789 150.15C49.5437 150.107 49.466 149.958 49.5049 149.818C49.5429 149.675 49.6886 149.596 49.8228 149.638C51.2714 150.076 51.7571 149.207 51.7792 149.169C51.8472 149.041 52.0036 148.994 52.1281 149.065C52.2535 149.134 52.295 149.295 52.2314 149.424C52.2076 149.468 51.7492 150.322 50.5445 150.3Z" fill="#013237"/>
<path d="M53.0076 135.5C53.0076 135.5 46.968 138.304 40.7456 138.5C34.5249 138.696 32.6365 140.941 32.6365 140.941L31.9661 138.442C30.401 132.613 33.6637 126.566 39.2538 124.934C44.8447 123.303 50.6449 126.704 52.21 132.532L53.0076 135.5Z" fill="white"/>
<path d="M38.3175 125.26C37.9907 125.391 37.6736 125.538 37.3662 125.699C42.3044 125.297 47.0395 128.713 48.4747 134.059L49.2423 136.917C49.9798 136.683 50.6343 136.452 51.1828 136.246L50.4417 133.485C48.9084 127.773 43.6099 124.262 38.3175 125.26Z" fill="white"/>
<path d="M33.9923 138.066C33.76 138.135 33.518 137.993 33.4517 137.75L33.1594 136.661C33.094 136.417 33.2309 136.166 33.4641 136.098C33.6973 136.03 33.9393 136.173 34.0046 136.416L34.297 137.505C34.3624 137.746 34.2263 138 33.9923 138.066Z" fill="white"/>
<path d="M35.3033 137.684C35.0701 137.753 34.8272 137.612 34.7619 137.368L34.4695 136.279C34.4042 136.035 34.5402 135.783 34.7733 135.715C35.0074 135.647 35.2494 135.789 35.3157 136.032L35.608 137.121C35.6725 137.364 35.5347 137.618 35.3033 137.684Z" fill="white"/>
<path d="M36.6118 137.303C36.3778 137.371 36.1358 137.23 36.0713 136.986L35.778 135.896C35.7127 135.654 35.8496 135.404 36.0828 135.334C36.3159 135.266 36.5579 135.408 36.6242 135.651L36.9157 136.74C36.981 136.981 36.845 137.235 36.6118 137.303Z" fill="white"/>
<path d="M31.7832 140.413C31.9051 140.903 32.3926 141.196 32.8714 141.065L52.8591 135.657C53.3378 135.527 53.6275 135.026 53.5065 134.534C53.3838 134.045 52.8962 133.752 52.4175 133.881L32.4306 139.289C31.951 139.419 31.6613 139.923 31.7832 140.413Z" fill="white"/>
<path d="M40.6455 140.562L55.3982 136.392C55.975 136.237 56.3442 135.71 56.2214 135.219C56.0987 134.727 55.5484 134.661 54.954 134.612C54.3666 134.56 52.9958 134.495 52.9958 134.495L34.5679 139.66C34.5679 139.66 39.4063 140.898 40.6455 140.562Z" fill="white"/>
<path fill-rule="evenodd" clip-rule="evenodd" d="M45.013 161.442C43.7526 162.783 46.7901 167.594 47.6389 167.601C48.1945 167.605 50.4882 164.086 51.4192 162.761C51.8096 162.205 52.336 161.476 52.2415 160.716C52.1478 159.972 50.9581 158.869 50.4768 158.4C49.9989 157.934 49.3303 158.447 48.6926 158.841C48.2775 159.099 45.6172 160.896 45.013 161.442Z" fill="#013237"/>
<path fill-rule="evenodd" clip-rule="evenodd" d="M44.4801 161.43C45.8739 162.764 43.0086 167.979 42.1263 168.034C41.5504 168.071 36.4744 163.339 35.4278 162.005C34.987 161.443 34.3961 160.711 34.4491 159.91C34.5012 159.122 35.6689 157.901 36.1414 157.38C36.6095 156.866 37.3373 157.364 38.021 157.742C38.4714 157.988 43.823 160.892 44.4801 161.43Z" fill="#013237"/>
<path fill-rule="evenodd" clip-rule="evenodd" d="M33.8626 237.442C33.8157 237.828 33.6285 238.729 32.8742 238.694C32.1915 238.662 31.4407 236.57 30.8595 235.479C30.2466 234.331 29.8129 233.005 29.1001 231.904C28.5949 231.126 27.7346 230.418 27.0545 229.826C26.3276 229.192 25.3534 228.749 24.8376 228.085C23.6911 226.612 23.6523 224.38 23.4067 222.54C25.4302 221.517 28.3423 219.92 30.0249 218.816C30.5098 220.249 31.6465 220.997 32.6578 221.918C34.0798 223.211 35.3261 224.255 36.7057 225.84C37.3955 226.634 38.1215 227.455 38.4351 228.391C38.7531 229.33 38.6647 230.39 38.5782 231.352C38.496 232.241 38.496 233.697 37.725 233.688C37.0343 233.677 37.1526 231.928 36.8108 231.159C36.0601 229.483 34.7476 228.712 34.6645 228.738C35.2925 230.218 36.3392 232.338 36.2137 234.07C36.1528 234.944 35.2961 239.497 33.8626 237.442Z" fill="#C0E6BA"/>
<path fill-rule="evenodd" clip-rule="evenodd" d="M30.0258 218.816C29.2592 220.44 25.72 223.237 23.4077 222.54C24.3484 222.011 29.0278 219.51 30.0258 218.816Z" fill="#C0E6BA"/>
<path fill-rule="evenodd" clip-rule="evenodd" d="M29.0764 231.821C28.1154 230.686 27.4565 230.138 26.7331 229.648C25.2361 228.632 23.7186 227.512 23.6807 224.816C24.9216 228.087 27.6093 229.066 29.0764 231.821Z" fill="#013237"/>
<path fill-rule="evenodd" clip-rule="evenodd" d="M37.2816 233.266C36.7243 232.26 36.7517 230.993 36.1219 230.006C35.5354 229.087 34.7917 228.912 34.6646 228.737C35.5496 228.504 36.0804 228.758 36.7808 229.529C37.6764 230.512 36.5476 231.826 37.2816 233.266Z" fill="#013237"/>
<path fill-rule="evenodd" clip-rule="evenodd" d="M33.8624 237.442C33.5559 235.414 32.6126 232.695 31.6914 230.897C33.2009 232.713 33.8156 235.419 33.8624 237.442Z" fill="#013237"/>
<path fill-rule="evenodd" clip-rule="evenodd" d="M33.1714 229.849C34.801 231.181 36.2689 235.301 35.4078 237.18C35.5482 235.53 34.6596 231.984 33.1714 229.849Z" fill="#013237"/>
<path fill-rule="evenodd" clip-rule="evenodd" d="M15.1495 200.221C21.5115 205.917 26.7632 212.651 32.2438 219.172C29.4492 222.547 26.6555 225.924 23.2806 228.612C16.8762 223.361 10.584 217.161 5.44267 210.24C3.39973 207.492 0.738522 204.485 0.0540092 200.526C-0.0245993 200.075 -0.0175337 198.696 0.0760899 198.027C0.617517 194.126 3.21601 190.068 5.10792 186.715C8.93677 179.929 13.444 173.732 18.83 168.696C21.7305 165.986 24.594 162.696 28.5809 161.763C33.3036 160.66 34.1427 167.547 32.469 171.317C27.5749 182.338 20.8058 191.516 15.1495 200.221Z" fill="#013237"/>
<path d="M30.9487 161.97C32.3557 164.005 32.3301 167.767 31.2437 170.214C26.355 181.221 19.5982 190.389 13.9463 199.083C14.3702 199.41 14.7757 199.759 15.1643 200.129C15.1793 200.129 15.1961 200.129 15.2111 200.129C20.855 191.449 27.5933 182.299 32.4696 171.317C33.8113 168.297 33.5366 163.281 30.9487 161.97Z" fill="#013237"/>
<path d="M7.47863 210.489C5.43658 207.74 2.77625 204.734 2.09174 200.775C2.01401 200.324 2.0202 198.946 2.11471 198.275C2.65437 194.375 5.25375 190.316 7.14565 186.963C10.9754 180.176 15.4799 173.98 20.8677 168.944C23.7683 166.233 26.6317 162.944 30.6187 162.011C30.7229 161.988 30.8218 161.973 30.9216 161.955C30.2839 161.64 29.5084 161.545 28.5819 161.761C24.5941 162.694 21.7315 165.984 18.8309 168.694C13.4449 173.731 8.93863 179.928 5.10889 186.713C3.21699 190.067 0.618495 194.124 0.0770674 198.025C-0.0165562 198.694 -0.0236235 200.073 0.054985 200.524C0.738614 204.483 3.4007 207.49 5.44364 210.238C9.5728 215.798 14.4483 220.88 19.5252 225.391C15.1832 220.73 11.0213 215.256 7.47863 210.489Z" fill="#013237"/>
<path d="M15.1498 200.221L11.4746 197.311L16.4066 198.306L15.1498 200.221Z" fill="#013237"/>
<path fill-rule="evenodd" clip-rule="evenodd" d="M140.212 340.121C140.212 340.121 141.99 349.511 143.752 351.319C143.752 351.319 140.403 353.917 133.716 349.367L131.478 340.949L140.212 340.121Z" fill="#F9E2C7"/>
<path fill-rule="evenodd" clip-rule="evenodd" d="M131.478 340.947C132.489 343.008 138.812 343.255 140.391 341.343L131.478 340.947Z" fill="#D8B99C"/>
<path fill-rule="evenodd" clip-rule="evenodd" d="M132.246 344.564C135.706 344.52 139.142 344.505 142.419 344.658C142.776 344.597 142.533 345.185 142.608 345.426C143.343 347.471 145.437 348.973 147.462 349.8C150.563 351.069 154.443 351.326 154.415 355.694C154.199 356.048 153.491 355.896 152.965 355.9C145.36 355.976 137.529 355.781 129.892 355.839C129.951 353.789 130.47 351.956 130.842 350.158C131.213 348.356 131.596 346.625 132.067 344.857C132.061 344.693 132.132 344.607 132.246 344.564Z" fill="#013237"/>
<path fill-rule="evenodd" clip-rule="evenodd" d="M101.867 339.891C101.867 339.891 102.339 346.34 103.203 349.404C101.19 351.401 94.2368 353.892 92.1938 350.236C92.7733 350.01 93.252 349.419 93.464 348.287C93.9065 345.885 93.1336 343.632 92.8695 340.639C95.8284 340.703 99.0213 339.94 101.867 339.891Z" fill="#F9E2C7"/>
<path fill-rule="evenodd" clip-rule="evenodd" d="M101.989 341.335C101.046 342.594 95.8614 344.357 92.8699 341.416C92.8699 341.416 101.782 339.894 101.867 339.891" fill="#D8B99C"/>
<path fill-rule="evenodd" clip-rule="evenodd" d="M103.162 344.572C99.6904 344.539 96.2449 344.535 92.9592 344.695C92.6015 344.635 92.8479 345.226 92.7728 345.466C92.0406 347.519 89.9456 349.033 87.9159 349.866C84.8095 351.147 80.9188 351.418 80.9568 355.797C81.1741 356.15 81.8851 355.996 82.4142 356C90.0383 356.052 97.8921 355.835 105.55 355.873C105.486 353.815 104.961 351.979 104.583 350.178C104.207 348.37 103.818 346.637 103.343 344.866C103.348 344.7 103.275 344.615 103.162 344.572Z" fill="#013237"/>
<path fill-rule="evenodd" clip-rule="evenodd" d="M82.4446 216.287C94.5052 218.337 106.365 220.604 118.472 222.61C120.912 245.103 125.151 258.226 129.298 279.137C133.443 300.073 137.914 321.856 143.67 341.339L129.8 341.358C117.313 318.112 100.707 239.285 100.764 241.314C101.251 258.966 100.634 265.618 101.275 283.249C102.015 303.586 102.306 321.162 102.861 341.397L90.6366 341.414C84.4628 310.455 82.1354 288.681 80.7117 252.223C80.2409 240.147 80.6392 227.536 82.3448 216.599C82.3377 216.452 82.328 216.302 82.4446 216.287Z" fill="#013237"/>
<path d="M100.21 228.992C100.335 233.465 100.694 238.082 101.173 242.768C103.79 253.595 118.487 320.295 129.802 341.359L133.547 341.355C120.998 316.687 100.154 226.989 100.21 228.992Z" fill="#013237"/>
<path d="M86.5765 217.526C86.5676 217.377 86.5579 217.229 86.6736 217.214C97.3326 219.026 107.841 220.997 118.494 222.817C118.487 222.747 118.479 222.68 118.471 222.61C106.365 220.604 94.5053 218.338 82.4438 216.287C82.3272 216.302 82.3369 216.452 82.3457 216.6C80.6402 227.537 80.2419 240.148 80.7126 252.224C82.1364 288.682 84.4638 310.455 90.6376 341.415L94.6837 341.409C88.6494 310.944 86.3521 289.239 84.9425 253.151C84.4735 241.073 84.8718 228.464 86.5765 217.526Z" fill="#013237"/>
<path d="M82.3027 215.932L119.179 227.364C119.179 227.364 111.32 230.581 96.4187 225.307C83.9994 220.907 82.3027 215.932 82.3027 215.932Z" fill="#013237"/>
<path fill-rule="evenodd" clip-rule="evenodd" d="M176.401 209.238C176.709 211.821 168.1 215.463 165.683 215.723C164.995 214.806 164.657 213.588 164.502 212.205C166.906 211.435 169.826 210.462 172.61 209.697C173.984 209.318 175.236 208.844 176.401 209.238Z" fill="#C0E6BA"/>
<path fill-rule="evenodd" clip-rule="evenodd" d="M175.879 209.126C174.629 211.086 165.434 215.723 164.501 212.546C164.333 211.967 166.121 211.527 166.854 211.296C167.776 211.003 168.653 210.76 169.601 210.497C172.313 209.737 174.248 209.137 175.879 209.126Z" fill="#4CA771"/>
<path fill-rule="evenodd" clip-rule="evenodd" d="M131.133 169.915C137.679 172.759 137.978 183.807 137.003 192.38C136.172 199.655 134.4 206.025 132.574 210.662C142.561 210.041 153.442 210.195 164.106 210.162C164.384 210.998 166.392 216.104 166.392 216.104C165.881 216.604 151.08 221.079 145.803 222.108C142.09 222.829 137.696 223.464 134.164 223.599C129.44 223.779 125.292 223.488 122.645 221.799C125.402 211.325 129.651 200.108 132.021 188.641C133.303 182.47 133.594 175.035 131.264 170.255C131.218 170.16 131.153 170.085 131.153 170.085L131.133 169.915Z" fill="#4CA771"/>
<path d="M145.801 220.362C142.087 221.085 137.691 221.718 134.161 221.854C129.672 222.025 125.707 221.769 123.052 220.294C122.914 220.797 122.777 221.3 122.643 221.799C125.292 223.489 129.437 223.779 134.163 223.6C137.692 223.466 142.088 222.828 145.801 222.108C151.079 221.082 165.88 216.603 166.388 216.104C166.388 216.104 166.144 215.476 165.811 214.626C162.971 215.732 150.543 219.439 145.801 220.362Z" fill="#013237"/>
<path fill-rule="evenodd" clip-rule="evenodd" d="M126.088 215.361C125.192 218.677 124.165 221.887 123.342 225.025C123.432 224.947 123.524 224.876 123.616 224.801C126.545 221.104 128.215 216.428 129.816 210.986C131.022 206.885 132.029 202.388 132.689 197.867C133.34 193.396 133.972 188.087 133.871 183.129C133.774 178.234 133.505 173.146 131.068 169.816C131.068 169.816 130.933 169.795 130.967 170.018C133.828 175.524 132.207 183.815 131.233 190.501C129.951 199.304 128.205 207.537 126.088 215.361Z" fill="#013237"/>
<path d="M158.272 209.794L159.604 207.242L157.771 206.927L158.272 209.794Z" fill="#BBF2D1"/>
<path d="M161.369 183.51L157.78 206.923L159.612 207.238L163.201 183.825L161.369 183.51Z" fill="#013237"/>
<path d="M161.578 182.192C161.66 181.655 162.135 181.292 162.642 181.378C163.148 181.465 163.491 181.971 163.408 182.507L163.205 183.831L161.374 183.515L161.578 182.192Z" fill="white"/>
<path d="M153.056 222.675C153.674 223.448 154.839 223.768 155.667 223.376L180.863 209.094C181.843 208.463 182.247 207.151 181.755 206.182L171.797 189.837C171.202 189.025 169.846 189.004 168.778 189.771L141.103 207.911C140.187 208.443 140.038 209.358 140.76 209.971L153.056 222.675Z" fill="#013237"/>
<path fill-rule="evenodd" clip-rule="evenodd" d="M115.36 159.7C116.348 164.076 119.342 167.604 123.782 166.779C125.82 166.402 126.501 165.143 126.501 165.143C127.716 165.963 128.751 166.802 129.559 167.665C132.01 170.274 132.818 173.999 132.825 179C132.833 185.285 131.703 191.243 130.678 196.457C128.583 207.122 125.39 218.12 123.134 227.815C115.563 227.064 108.502 224.899 101.705 222.748C94.9098 220.597 88.1795 218.641 81.9553 215.769C84.3268 201.995 88.8181 187.219 93.2193 174.468C94.7085 170.145 96.5668 165.907 99.1017 162.993C102.575 158.997 109.095 157.609 115.36 159.7Z" fill="#4CA771"/>
<path d="M129.581 167.591C129.011 166.983 128.323 166.385 127.546 165.798C127.972 174.118 126.381 192.484 114.457 228.057C117.21 228.669 120.022 229.156 122.907 229.442C125.216 219.52 128.483 208.261 130.629 197.347C131.676 192.01 132.833 185.912 132.824 179.478C132.818 174.361 132.09 170.262 129.581 167.591Z" fill="#4CA771"/>
<path d="M113.698 159.227C107.94 157.842 101.484 159.235 98.3105 163.092C95.7924 166.15 93.813 170.413 92.2886 174.838C87.784 187.889 83.1885 203.013 80.7605 217.111C87.1304 220.051 94.0188 222.053 100.974 224.254C103.129 224.936 105.31 225.618 107.525 226.26C118.919 177.049 114.856 161.94 113.698 159.227Z" fill="#4CA771"/>
<path fill-rule="evenodd" clip-rule="evenodd" d="M116.06 202.153C126.245 200.514 136.393 198.841 147.58 198.264C147.805 202.044 148.292 205.544 148.534 209.304C141.259 210.249 135.773 212.487 130.021 214.541C124.29 216.588 118.994 219.644 111.511 219.653C108.394 219.657 106.214 218.811 104.594 217.307C102.416 215.28 100.542 210.717 99.4254 206.893C96.6838 197.507 94.927 183.379 96.5681 171.413C97.3188 165.941 98.7912 160.969 103.349 159.617C106.704 158.626 109.229 161.599 110.152 164.075C110.655 165.417 110.786 167.029 111.096 168.662C113.033 178.816 114.675 191.58 116.06 202.153Z" fill="#013237"/>
<path d="M116.061 202.659C114.675 192.085 113.276 179.422 111.339 169.27C111.028 167.637 110.655 165.418 110.152 164.075C109.229 161.6 106.704 158.626 103.349 159.617C103.186 159.664 103.038 159.728 102.881 159.786C105.716 159.603 107.828 162.208 108.654 164.422C109.157 165.767 109.39 167.928 109.704 169.563C111.639 179.712 113.172 192.392 114.558 202.966C114.558 202.966 116.074 202.659 116.061 202.659Z" fill="#4CA771"/>
<path fill-rule="evenodd" clip-rule="evenodd" d="M148.533 209.809C148.506 209.391 148.468 208.984 148.436 208.572C143.512 209.816 136.416 211.706 130.93 213.665C125.644 215.553 111.747 219.676 106.933 214.457C104.614 211.94 102.837 208.672 101.649 205.284C97.6032 193.734 96.7659 171.489 98.8433 163.755C99.02 163.331 99.1207 162.798 99.4192 162.481C96.2545 165.825 95.979 179.233 95.979 179.255C95.805 184.92 96.228 190.74 97.0185 196.091C97.5343 199.835 98.256 203.384 99.2213 206.657C99.2911 206.903 99.3565 207.157 99.4262 207.396C100.544 211.218 102.415 215.783 104.595 217.81C104.667 217.877 104.747 217.937 104.822 218.002C105.232 218.407 105.662 218.764 106.119 219.048C107.865 220.132 110.234 220.304 112.566 220.157C114.65 220.023 117.016 219.817 119.088 219.089H119.084C122.992 218.015 148.533 209.809 148.533 209.809Z" fill="#4CA771"/>
<path fill-rule="evenodd" clip-rule="evenodd" d="M115.745 200.26L116.061 202.659C116.061 202.659 113.241 203.235 111.725 203.534C113.165 201.741 115.745 200.26 115.745 200.26Z" fill="#4CA771"/>
<path fill-rule="evenodd" clip-rule="evenodd" d="M156.369 196.027C157.126 196.94 155.399 198.581 154.179 199.592C157.186 199.682 161.292 200.727 163.877 202.095C164.672 202.515 166.092 203.117 165.987 203.953C165.853 205.038 164.082 204.659 163.175 204.453C161.932 204.17 161.226 203.806 160.125 203.714C160.192 203.921 160.557 204.93 160.128 205.45C159.778 205.879 159.438 205.877 158.841 205.823C158.938 206.63 158.908 206.927 158.373 207.437C157.74 208.043 156.498 207.565 156.498 207.565C156.295 208.034 155.84 208.708 155.29 209.091C153.548 210.296 151.024 209.103 148.532 209.81C148.161 206.187 148.044 202.295 147.58 198.77C149.232 198.547 150.366 198.271 151.798 197.647C153.143 197.061 154.226 196.025 155.311 195.658C155.573 195.568 156.091 195.695 156.369 196.027Z" fill="#C0E6BA"/>
<path fill-rule="evenodd" clip-rule="evenodd" d="M156.521 196.313C156.893 197.468 155.123 199.779 152.908 199.878C153.653 199.575 154.948 198.395 155.353 197.458C155.607 196.865 155.541 195.8 154.667 195.943C155.535 195.269 156.314 195.658 156.521 196.313Z" fill="#4CA771"/>
<path fill-rule="evenodd" clip-rule="evenodd" d="M159.119 202.904C161.002 203.686 160.988 206.348 158.842 205.824C159.01 206.189 158.902 206.814 158.726 207.065C158.158 207.882 157.251 207.883 156.499 207.567C156.085 208.733 155.057 209.631 153.454 209.802C152.319 209.923 149.841 209.853 148.533 209.81C148.533 209.81 149.664 209.57 150.287 209.434C152.23 209.013 154.845 209.098 154.976 207.07C155.805 207.121 156.427 207.027 156.852 206.57C157.127 206.276 157.486 205.557 157.402 204.93C158.219 204.678 159.523 204.049 159.119 202.904Z" fill="#4CA771"/>
<path fill-rule="evenodd" clip-rule="evenodd" d="M128.377 160.237L127.255 164.858C124.447 168.707 118.573 166.749 116.545 163.976C115.224 162.174 115.734 161.188 116.2 159.299C116.833 156.739 117.456 154.109 118.153 151.659C117.327 151.378 116.156 150.39 115.889 148.968C115.687 147.888 116.283 146.678 117.367 146.589C117.106 141.156 118.785 136.746 123.94 135.276C128.787 133.892 133.825 136.17 135.396 140.911C137.452 147.127 136.487 154.365 134.102 157.789C133.004 159.37 130.843 160.991 128.377 160.237Z" fill="#C0E6BA"/>
<path fill-rule="evenodd" clip-rule="evenodd" d="M132.726 136.66C134.15 136.648 135.952 135.922 136.495 137.087C137.377 138.971 136.88 140.913 134.646 141.535C130.705 142.634 127.062 141.602 125.464 139.405C125.36 140.061 125.193 140.732 124.858 141.439C124.17 142.877 122.362 143.842 121.907 145.696C121.53 147.226 122.324 150.001 121.046 150.3C119.951 150.56 119.629 148.28 118.731 147.374C118.271 146.911 117.989 146.843 117.369 146.589C115.579 143.777 115.8 140.509 118.064 138.641C118.926 137.928 119.239 138.047 119.628 137.693C120.23 137.145 120.44 136.426 120.864 135.996C121.867 134.977 123.138 134.41 125.434 134.022C126.889 133.775 125.313 135.049 126.876 134.875C130.603 134.455 136.848 133.973 132.726 136.66Z" fill="#013237"/>
<path fill-rule="evenodd" clip-rule="evenodd" d="M122.673 156.289C124.053 157.976 126.424 159.813 128.379 160.237L127.788 162.663C126.492 162.415 123.031 160.824 122.673 156.289Z" fill="#4CA771"/>
<path fill-rule="evenodd" clip-rule="evenodd" d="M137.017 151.782C136.566 153.123 135.25 153.844 133.59 153.404C132.912 153.227 132.501 152.568 132.34 152.593C132.154 152.618 132.305 153.214 131.21 153.881C129.651 154.825 127.57 154.291 127.17 152.768C129.38 152.992 130.264 150.257 132.218 150.991C133.69 149.895 134.446 151.301 135.565 151.652C136.12 151.826 136.529 151.723 137.017 151.782Z" fill="#013237"/>
<path fill-rule="evenodd" clip-rule="evenodd" d="M136.009 143.297C136.007 143.6 135.113 143.837 134.014 143.825C132.917 143.813 132.029 143.558 132.03 143.255C132.032 142.951 132.924 142.716 134.023 142.726C135.122 142.739 136.012 142.994 136.009 143.297Z" fill="#013237"/>
<path fill-rule="evenodd" clip-rule="evenodd" d="M135.298 146.565C135.35 147.081 135.102 147.532 134.746 147.573C134.39 147.613 134.055 147.227 134.006 146.71C133.953 146.194 134.2 145.741 134.556 145.701C134.911 145.66 135.247 146.046 135.298 146.565Z" fill="#013237"/>
<path fill-rule="evenodd" clip-rule="evenodd" d="M129.948 143.563C130.027 143.851 129.228 144.341 128.17 144.648C127.11 144.957 126.189 144.97 126.114 144.677C126.038 144.384 126.835 143.898 127.894 143.589C128.954 143.281 129.873 143.268 129.948 143.563Z" fill="#013237"/>
<path fill-rule="evenodd" clip-rule="evenodd" d="M128.709 147.669C128.761 148.186 128.517 148.638 128.159 148.678C127.803 148.718 127.468 148.331 127.42 147.813C127.364 147.299 127.615 146.845 127.972 146.805C128.327 146.765 128.658 147.152 128.709 147.669Z" fill="#013237"/>
<path d="M132.078 151.084C132.095 151.083 132.111 151.081 132.128 151.075C132.578 150.95 132.88 150.727 133.059 150.397C133.412 149.731 133.156 148.802 132.833 147.622C132.627 146.874 132.391 146.024 132.278 145.106C132.257 144.937 132.108 144.815 131.952 144.84C131.792 144.863 131.678 145.017 131.7 145.185C131.82 146.151 132.062 147.023 132.272 147.796C132.548 148.792 132.786 149.653 132.555 150.092C132.456 150.271 132.27 150.397 131.98 150.478C131.824 150.521 131.732 150.691 131.772 150.856C131.807 151.002 131.939 151.096 132.078 151.084Z" fill="#4CA771"/>
<path d="M131.829 154.997C131.578 154.954 131.298 154.871 130.988 154.725C130.86 154.665 130.802 154.504 130.858 154.367C130.915 154.229 131.069 154.167 131.197 154.229C132.577 154.872 133.168 154.064 133.194 154.027C133.279 153.909 133.439 153.883 133.553 153.97C133.668 154.059 133.69 154.225 133.611 154.346C133.581 154.389 133.021 155.185 131.829 154.997Z" fill="#4CA771"/>
<path fill-rule="evenodd" clip-rule="evenodd" d="M122.485 165.168C120.911 166.097 122.522 171.692 123.333 171.953C123.867 172.123 127.019 169.38 128.271 168.369C128.796 167.944 129.498 167.393 129.613 166.623C129.724 165.868 128.884 164.439 128.549 163.838C128.217 163.242 127.435 163.541 126.719 163.734C126.25 163.862 123.211 164.817 122.485 165.168Z" fill="white"/>
<path fill-rule="evenodd" clip-rule="evenodd" d="M121.976 164.995C122.951 166.712 118.789 170.934 117.928 170.725C117.366 170.587 113.78 164.461 113.137 162.848C112.866 162.17 112.498 161.279 112.766 160.515C113.03 159.764 114.481 158.922 115.074 158.558C115.664 158.197 116.226 158.901 116.781 159.472C117.144 159.847 121.49 164.275 121.976 164.995Z" fill="white"/>
<path d="M136.913 138.47C136.913 138.47 130.704 140.879 124.485 140.631C118.265 140.385 116.235 142.523 116.235 142.523L115.729 139.944C114.544 133.926 118.193 128.034 123.878 126.782C129.561 125.53 135.127 129.391 136.311 135.407L136.913 138.47Z" fill="white"/>
<path d="M122.921 127.045C122.587 127.153 122.26 127.278 121.943 127.419C126.898 127.365 131.399 131.166 132.485 136.686L133.066 139.637C133.817 139.452 134.484 139.264 135.045 139.095L134.484 136.246C133.324 130.349 128.265 126.412 122.921 127.045Z" fill="white"/>
<path d="M117.775 139.707C117.536 139.759 117.305 139.599 117.256 139.347L117.035 138.223C116.985 137.973 117.138 137.727 117.375 137.675C117.613 137.622 117.844 137.783 117.894 138.034L118.115 139.158C118.165 139.409 118.012 139.657 117.775 139.707Z" fill="white"/>
<path d="M119.106 139.414C118.869 139.467 118.637 139.306 118.587 139.054L118.367 137.929C118.317 137.678 118.471 137.433 118.707 137.382C118.945 137.328 119.176 137.489 119.226 137.741L119.447 138.865C119.496 139.116 119.343 139.363 119.106 139.414Z" fill="white"/>
<path d="M120.436 139.121C120.199 139.173 119.966 139.013 119.918 138.762L119.696 137.636C119.647 137.385 119.799 137.141 120.037 137.087C120.274 137.035 120.505 137.197 120.556 137.448L120.776 138.572C120.827 138.824 120.674 139.07 120.436 139.121Z" fill="white"/>
<path d="M115.418 141.927C115.508 142.432 115.975 142.762 116.462 142.665L136.754 138.619C137.241 138.522 137.563 138.034 137.473 137.528C137.383 137.022 136.915 136.691 136.429 136.788L116.137 140.835C115.649 140.932 115.329 141.421 115.418 141.927Z" fill="white"/>
<path d="M124.25 142.713L139.239 139.545C139.826 139.429 140.228 138.922 140.137 138.415C140.047 137.907 139.503 137.803 138.913 137.709C138.329 137.615 136.966 137.45 136.966 137.45L118.244 141.362C118.244 141.362 122.993 142.965 124.25 142.713Z" fill="white"/>
</svg>
